<?xml version="1.0"?>
<svg xmlns="http://www.w3.org/2000/svg" xmlns:xlink="http://www.w3.org/1999/xlink" version="1.1" id="Capa_1" x="0px" y="0px" viewBox="0 0 204.8 204.8" style="enable-background:new 0 0 204.8 204.8;" xml:space="preserve" width="512px" height="512px" class=""><g><circle style="fill:#FFCE54" cx="42.667" cy="119.467" r="39.253" data-original="#DDDDDD" class="active-path" data-old_color="#DDDDDD"/><path d="M42.667,162.133C19.14,162.133,0,142.993,0,119.467S19.14,76.8,42.667,76.8s42.667,19.14,42.667,42.667  S66.193,162.133,42.667,162.133z M42.667,83.627c-19.763,0-35.84,16.079-35.84,35.84s16.077,35.84,35.84,35.84  s35.84-16.079,35.84-35.84S62.43,83.627,42.667,83.627z" data-original="#000000" class=""/><circle style="fill:#FFCE54" cx="162.133" cy="119.467" r="39.253" data-original="#DDDDDD" class="active-path" data-old_color="#DDDDDD"/><path d="M162.133,162.133c-23.526,0-42.667-19.14-42.667-42.667S138.607,76.8,162.133,76.8S204.8,95.94,204.8,119.467  S185.66,162.133,162.133,162.133z M162.133,83.627c-19.763,0-35.84,16.079-35.84,35.84s16.077,35.84,35.84,35.84  s35.84-16.079,35.84-35.84S181.897,83.627,162.133,83.627z" data-original="#000000" class=""/><path d="M163.84,124.587c-0.874,0-1.748-0.333-2.413-1C136.777,98.939,137.9,48.135,137.96,45.984  c0.051-1.847,1.563-3.318,3.412-3.318h22.468c7.528,0,13.653,6.125,13.653,13.653v6.827c0,7.528-6.125,13.653-13.653,13.653h-6.827  c-1.884,0-3.413-1.529-3.413-3.413c0-1.884,1.529-3.413,3.413-3.413h6.827c3.765,0,6.827-3.062,6.827-6.827V56.32  c0-3.765-3.062-6.827-6.827-6.827h-19.05c0.193,11.525,2.309,50.113,21.463,69.267c1.333,1.333,1.333,3.494,0,4.826  C165.588,124.254,164.714,124.587,163.84,124.587z" data-original="#000000" class=""/><path d="M102.4,124.587H40.96c-1.316,0-2.516-0.756-3.082-1.947c-0.567-1.188-0.398-2.596,0.432-3.618l44.373-54.613  c0.649-0.799,1.621-1.261,2.649-1.261h54.613c1.268,0,2.43,0.701,3.021,1.824c0.59,1.121,0.51,2.478-0.208,3.521l-37.547,54.613  C104.576,124.034,103.525,124.587,102.4,124.587z M48.131,117.76h52.473l32.853-47.787h-46.5L48.131,117.76z" data-original="#000000" class=""/><path d="M102.398,121.175c-1.512,0-2.895-1.015-3.299-2.546L82.033,53.775c-0.48-1.823,0.609-3.69,2.432-4.169  c1.821-0.481,3.69,0.609,4.169,2.434l17.067,64.853c0.48,1.823-0.609,3.69-2.432,4.169  C102.977,121.138,102.685,121.175,102.398,121.175z" data-original="#000000" class=""/><path d="M95.573,56.32h-30.72c-1.884,0-3.413-1.529-3.413-3.413c0-1.884,1.529-3.413,3.413-3.413h30.72  c1.884,0,3.413,1.529,3.413,3.413C98.987,54.791,97.458,56.32,95.573,56.32z" data-original="#000000" class=""/><circle style="fill:#DDDDDD" cx="42.667" cy="119.467" r="8.533" data-original="#777777" class="" data-old_color="#777777"/><path d="M42.667,131.413c-6.588,0-11.947-5.361-11.947-11.947c0-6.586,5.359-11.947,11.947-11.947s11.947,5.361,11.947,11.947  C54.613,126.053,49.254,131.413,42.667,131.413z M42.667,114.347c-2.823,0-5.12,2.297-5.12,5.12s2.297,5.12,5.12,5.12  s5.12-2.297,5.12-5.12S45.489,114.347,42.667,114.347z" data-original="#000000" class=""/><circle style="fill:#DDDDDD" cx="162.133" cy="119.467" r="8.533" data-original="#777777" class="" data-old_color="#777777"/><path d="M162.133,131.413c-6.588,0-11.947-5.361-11.947-11.947c0-6.586,5.359-11.947,11.947-11.947  c6.588,0,11.947,5.361,11.947,11.947C174.08,126.053,168.721,131.413,162.133,131.413z M162.133,114.347  c-2.823,0-5.12,2.297-5.12,5.12s2.297,5.12,5.12,5.12c2.823,0,5.12-2.297,5.12-5.12S164.956,114.347,162.133,114.347z" data-original="#000000" class=""/><circle style="fill:#DDDDDD" cx="100.693" cy="119.467" r="8.533" data-original="#777777" class="" data-old_color="#777777"/><path d="M100.693,131.413c-6.588,0-11.947-5.361-11.947-11.947c0-6.586,5.359-11.947,11.947-11.947  c6.588,0,11.947,5.361,11.947,11.947C112.64,126.053,107.281,131.413,100.693,131.413z M100.693,114.347  c-2.823,0-5.12,2.297-5.12,5.12s2.297,5.12,5.12,5.12s5.12-2.297,5.12-5.12S103.516,114.347,100.693,114.347z" data-original="#000000" class=""/></g> </svg>
